# xmcd
#
# Track frame offsets: 
#        150
#        18436
#        36891
#        52931
#        70656
#        86906
#        104534
#        120167
#        133956
#        151958
#        167925
#        187819
#        208577
#
# Disc length: 3070 seconds
#
# Revision: 0
# Processed by: cddbd v1.5.2PL0 Copyright (c) Steve Scherf et al.
# Submitted via: ExactAudioCopyFreeDBPlugin 1.0
#
DISCID=ab0bfc0d
DTITLE=Rocket Club - Lucky
DYEAR=2014
DGENRE=Country
TTITLE0=Silos
TTITLE1=Otherwise
TTITLE2=Grading On A Curve
TTITLE3=Why Am I
TTITLE4=Now, Here, This
TTITLE5=Fathers And Sons
TTITLE6=Bad In A Good Way
TTITLE7=World Wide Crazy
TTITLE8=After The Fire
TTITLE9=Tank Top
TTITLE10=Livin For You
TTITLE11=Only Goodbye
TTITLE12=Lucky
EXTD=
EXTT0=
EXTT1=
EXTT2=
EXTT3=
EXTT4=
EXTT5=
EXTT6=
EXTT7=
EXTT8=
EXTT9=
EXTT10=
EXTT11=
EXTT12=
PLAYORDER=
